<?xml version="1.0" standalone="no"?>
<!DOCTYPE svg PUBLIC "-//W3C//DTD SVG 20010904//EN"
 "http://www.w3.org/TR/2001/REC-SVG-20010904/DTD/svg10.dtd">
<svg version="1.0" xmlns="http://www.w3.org/2000/svg"
 width="500.000000pt" height="500.000000pt" viewBox="0 0 500.000000 500.000000"
 preserveAspectRatio="xMidYMid meet">
<metadata>
Created by potrace 1.16, written by Peter Selinger 2001-2019
</metadata>
<g transform="translate(0.000000,500.000000) scale(0.100000,-0.100000)"
fill="#000000" stroke="none">
<path d="M4428 3739 c-16 -22 -28 -44 -28 -49 0 -13 -17 -13 -25 0 -8 12 -35
-12 -35 -32 -1 -7 -14 -29 -30 -48 -17 -19 -30 -40 -30 -47 0 -7 -7 -10 -15
-7 -11 5 -13 2 -9 -10 3 -9 1 -16 -6 -16 -6 0 -8 -5 -5 -11 4 -5 -2 -18 -14
-28 -11 -10 -25 -30 -30 -44 -6 -15 -18 -27 -27 -27 -8 0 -14 -6 -12 -12 3 -7
-13 -29 -34 -50 l-38 -36 6 -76 c4 -57 3 -76 -7 -76 -7 0 -10 -3 -6 -6 3 -4 1
-12 -6 -20 -30 -33 -34 -42 -39 -80 -3 -22 -37 -97 -76 -170 -38 -71 -107
-203 -153 -292 -79 -156 -83 -166 -87 -242 -4 -63 -1 -85 12 -105 9 -14 21
-23 26 -20 6 3 8 0 5 -7 -6 -16 22 -54 32 -44 5 4 0 13 -10 21 -15 11 -16 13
-2 19 13 5 13 9 3 26 -7 11 -19 18 -25 15 -9 -3 -13 6 -13 26 0 17 -5 39 -10
49 -7 12 -7 27 0 45 5 14 12 36 14 48 4 20 66 150 135 283 14 28 31 60 36 72
6 12 35 65 66 119 31 54 71 125 89 158 17 33 56 103 85 155 57 100 126 238
152 305 9 22 24 49 33 60 23 27 113 185 109 189 -2 2 -16 -14 -31 -35z"/>
<path d="M2265 3728 c-12 -18 -35 -36 -55 -43 -23 -8 -30 -14 -20 -18 12 -4
11 -6 -3 -6 -10 -1 -16 -5 -13 -10 4 -5 0 -12 -6 -14 -8 -3 -6 -6 5 -6 23 -1
22 -6 -13 -63 -16 -26 -30 -55 -30 -63 0 -8 -4 -15 -10 -15 -5 0 -10 -7 -10
-15 0 -8 -4 -15 -10 -15 -5 0 -10 -5 -10 -12 0 -15 -51 -120 -67 -136 -8 -8
-35 -20 -61 -27 -26 -7 -55 -16 -64 -20 -21 -9 -24 15 -6 48 10 19 9 20 -4 9
-9 -7 -18 -27 -20 -44 l-5 -30 54 6 c45 5 53 4 53 -11 0 -22 -61 -153 -71
-153 -5 0 -9 15 -9 33 0 20 -10 47 -25 67 -14 19 -23 40 -21 47 3 7 0 12 -7
10 -7 -1 -10 10 -8 31 1 18 -3 40 -11 49 -11 15 -10 16 10 11 12 -4 20 -2 16
3 -3 5 -13 9 -22 9 -14 0 -14 2 -3 9 10 6 1 11 -28 16 -23 4 -41 12 -41 20 0
13 33 180 46 231 5 19 4 25 -5 20 -6 -4 -11 -16 -11 -27 0 -10 -4 -27 -10 -37
-17 -31 -38 -105 -59 -217 -41 -207 -82 -380 -102 -420 -21 -43 -25 -69 -8
-45 9 12 10 12 5 -3 -3 -10 -6 -23 -6 -29 0 -6 -7 -7 -16 -4 -11 4 -14 1 -9
-13 8 -25 -14 -159 -31 -193 -8 -15 -11 -35 -7 -44 3 -10 2 -15 -3 -12 -5 4
-10 -10 -11 -30 -5 -69 -26 -177 -38 -192 -12 -15 -28 -90 -19 -90 9 0 32 64
54 155 13 50 31 107 42 128 43 86 62 -2 27 -124 -20 -71 -21 -81 -9 -137 17
-73 32 -97 57 -87 12 5 14 9 6 12 -7 3 -13 12 -13 20 0 9 -6 13 -15 9 -11 -4
-15 1 -15 19 0 13 -5 34 -11 47 -17 38 11 118 108 308 92 179 149 286 164 306
5 6 24 40 42 75 73 138 150 275 163 289 7 9 20 36 29 60 9 24 27 64 40 88 14
24 22 48 19 53 -3 5 0 9 5 9 6 0 11 8 11 19 0 10 6 24 14 30 14 12 116 176
116 186 0 14 -17 1 -35 -27z m-420 -744 c-32 -72 -97 -184 -108 -184 -4 0 -10
6 -12 13 -2 6 -10 26 -16 42 -23 59 3 136 58 172 26 17 96 33 101 23 1 -4 -9
-33 -23 -66z"/>
<path d="M677 3724 c-10 -11 3 -24 24 -24 11 0 19 -7 19 -16 0 -8 4 -13 9 -9
11 6 51 -42 51 -62 0 -8 5 -11 10 -8 6 3 10 15 10 26 0 26 34 25 72 -2 23 -17
27 -24 16 -30 -8 -6 -19 -1 -30 14 -14 18 -19 20 -30 9 -11 -12 -9 -17 10 -29
12 -9 22 -22 22 -29 0 -8 9 -14 19 -14 20 0 32 -29 37 -90 1 -19 8 -55 14 -80
6 -25 14 -61 16 -80 3 -19 8 -42 11 -50 5 -14 7 -23 11 -77 3 -33 25 -28 46
10 41 71 202 305 245 357 25 30 71 79 101 109 33 32 45 49 30 41 -24 -12 -203
-190 -265 -263 -37 -44 -56 -52 -116 -48 -20 1 -21 5 -15 61 5 46 4 64 -7 75
-8 8 -17 12 -20 9 -6 -6 -48 60 -51 81 -4 25 -67 74 -105 81 -20 4 -51 15 -69
26 -34 19 -54 22 -65 12z"/>
<path d="M3037 3712 c-10 -10 -17 -23 -17 -29 0 -14 -29 -25 -42 -17 -6 4 -9
1 -6 -7 3 -8 -2 -19 -11 -26 -11 -8 -12 -12 -3 -13 21 0 14 -65 -24 -229 -44
-188 -87 -314 -124 -361 -43 -56 -50 -75 -50 -142 0 -39 -12 -109 -30 -178
-17 -63 -35 -135 -40 -160 -5 -25 -16 -65 -24 -90 l-16 -45 6 85 c23 340 42
1037 30 1086 -11 42 -17 21 -20 -65 -2 -60 -7 -86 -20 -100 -13 -15 -17 -39
-18 -120 -1 -99 7 -138 19 -93 10 41 18 22 16 -35 -2 -32 -4 -89 -6 -128 -1
-38 -7 -77 -12 -85 -5 -8 -8 -34 -6 -58 2 -37 0 -44 -13 -39 -13 5 -16 0 -15
-26 1 -18 3 -24 6 -14 5 20 23 23 24 5 6 -76 -8 -288 -21 -322 -5 -14 -7 -32
-4 -40 3 -8 -2 -30 -12 -48 -37 -72 -37 -71 -20 -65 24 9 20 -18 -8 -47 -26
-29 -38 -33 -30 -11 8 21 -10 19 -30 -4 -11 -12 -14 -21 -7 -26 17 -10 13 -28
-14 -59 -14 -16 -25 -33 -25 -37 0 -4 -3 -16 -6 -26 -4 -11 0 -9 11 7 10 14
42 54 70 90 29 36 61 83 71 105 15 31 20 36 22 20 3 -10 -1 -42 -7 -70 -10
-45 -9 -57 8 -96 12 -24 21 -36 21 -26 0 10 -7 31 -15 47 -11 22 -12 35 -5 52
6 13 21 67 34 121 17 72 29 102 45 113 11 8 21 20 21 26 0 7 -6 6 -15 -2 -23
-19 -19 12 15 128 17 56 30 112 30 126 0 14 5 28 11 32 7 4 9 25 4 59 -7 60
10 113 50 155 27 29 80 194 125 390 34 150 54 217 82 273 20 41 19 46 -5 19z"/>
<path d="M3602 3668 c-11 -29 -33 -100 -50 -158 -17 -58 -38 -122 -47 -144
l-16 -38 -28 26 c-20 19 -37 26 -68 26 -63 0 -68 13 -42 120 18 80 19 98 9
136 -7 24 -19 49 -28 56 -13 11 -14 10 -9 -2 30 -76 31 -88 8 -182 -13 -51
-26 -97 -29 -103 -6 -9 -42 -135 -61 -215 -5 -19 -16 -54 -24 -77 -9 -23 -12
-45 -7 -48 8 -5 139 11 173 21 9 3 30 -4 46 -15 l29 -21 7 32 c23 119 50 235
72 308 84 280 113 408 65 278z"/>
<path d="M3955 3619 c-52 -145 -74 -216 -84 -274 -7 -38 -16 -79 -20 -90 -5
-11 -29 -105 -55 -210 -25 -104 -58 -237 -72 -295 -31 -129 -47 -186 -75 -270
-11 -36 -29 -101 -39 -145 -10 -44 -31 -124 -46 -177 -29 -96 -29 -98 -60 -98
-57 0 -124 -28 -178 -74 -29 -25 -57 -42 -61 -38 -5 4 -5 2 -1 -5 3 -6 -3 -27
-14 -46 -12 -19 -28 -63 -36 -97 l-16 -61 32 -65 c27 -55 45 -75 126 -139 52
-42 94 -77 94 -80 0 -3 -17 -13 -38 -24 -31 -16 -68 -20 -114 -12 -12 2 -28
63 -22 86 10 41 -38 41 -49 0 -4 -12 -5 -9 -3 8 4 35 -17 57 -55 57 -26 0 -33
-6 -49 -42 -27 -60 -26 -136 3 -179 59 -87 214 -134 311 -94 80 34 155 129
156 198 0 46 -45 118 -119 192 -80 78 -99 117 -81 169 10 30 55 74 66 64 2 -2
-1 -21 -7 -41 -16 -58 5 -91 58 -94 40 -3 44 0 87 53 60 73 75 122 53 169 -9
19 -21 35 -26 35 -5 0 -23 12 -39 27 l-31 26 25 66 c13 36 35 86 48 111 19 34
22 49 14 63 -11 21 -5 68 19 137 8 25 36 131 63 235 88 346 120 460 139 485
16 22 25 62 35 147 1 13 6 26 9 30 4 3 7 17 7 30 0 13 14 78 30 145 17 67 28
123 25 126 -2 3 -7 -1 -10 -9z"/>
<path d="M482 3588 c-8 -18 -25 -67 -39 -108 -14 -41 -47 -137 -74 -212 -59
-167 -166 -519 -208 -683 -31 -125 -49 -237 -32 -200 5 11 10 30 10 43 2 57
114 442 214 732 33 96 70 209 82 250 13 41 33 101 45 133 23 60 24 102 2 45z"/>
<path d="M2315 3163 c-14 -27 -30 -55 -36 -63 -5 -8 -18 -33 -28 -55 -10 -22
-26 -46 -35 -54 -9 -7 -16 -20 -16 -29 0 -11 8 -13 38 -8 20 3 51 6 68 6 l31
0 7 73 c11 102 13 177 5 177 -4 0 -19 -21 -34 -47z"/>
<path d="M4468 3166 c-16 -24 -28 -48 -28 -55 0 -6 -9 -20 -20 -31 -11 -11
-20 -27 -20 -36 0 -9 -11 -29 -25 -46 -35 -41 -32 -52 13 -44 20 3 51 6 68 6
l32 0 7 78 c10 94 12 172 5 172 -3 0 -17 -20 -32 -44z"/>
<path d="M1299 3068 c-36 -50 -49 -71 -55 -90 -4 -10 -10 -18 -15 -18 -5 0 -9
-7 -9 -15 0 -8 -5 -15 -12 -15 -6 0 -8 -3 -5 -6 4 -4 -5 -20 -18 -36 -14 -16
-25 -36 -25 -45 0 -8 -11 -24 -25 -35 -14 -11 -25 -23 -25 -28 0 -5 -14 -29
-30 -52 -59 -83 -84 -123 -82 -130 2 -9 -54 -39 -65 -36 -4 1 -21 -6 -36 -17
-28 -18 -30 -18 -63 0 -20 10 -34 26 -34 37 0 11 -7 18 -20 18 -16 0 -20 7
-20 30 0 17 -6 33 -13 36 -15 5 -20 41 -6 49 13 9 11 25 -4 25 -16 0 -40 38
-31 51 3 5 0 17 -7 25 -15 18 -22 67 -8 59 5 -4 9 1 9 10 0 11 -5 15 -15 11
-11 -4 -15 1 -15 19 0 14 -4 25 -8 25 -5 0 -8 20 -7 45 1 42 -8 76 -18 65 -2
-3 -30 -93 -61 -200 -31 -107 -66 -222 -76 -255 -22 -70 -53 -215 -47 -221 2
-3 12 28 22 68 25 108 78 278 86 278 3 0 15 -31 24 -68 l18 -69 46 0 c66 -1
108 -5 94 -10 -7 -3 -13 -9 -13 -14 0 -6 5 -7 10 -4 6 3 13 -1 16 -9 3 -9 10
-14 14 -11 4 3 13 -2 20 -9 16 -20 112 -31 139 -17 11 7 36 12 54 13 30 1 32
3 29 32 -2 22 7 47 32 86 19 30 48 78 65 105 16 28 48 68 70 89 l40 39 11 -27
c13 -36 13 -57 -5 -141 -16 -75 -45 -254 -52 -320 -2 -22 1 -60 6 -85 10 -42
10 -42 5 17 -4 41 0 84 11 128 9 36 13 70 10 75 -3 6 -2 10 4 10 5 0 13 -4 16
-10 9 -15 25 -12 25 5 0 7 -7 18 -15 22 -12 7 -13 18 -5 63 26 155 68 345 91
414 23 71 12 93 -22 44z"/>
<path d="M3220 2723 c-121 -12 -117 -9 -141 -69 -13 -29 -26 -54 -31 -54 -5 0
-7 -13 -6 -29 1 -17 -5 -38 -15 -49 -13 -14 -14 -21 -5 -30 9 -9 8 -12 -5 -12
-9 0 -17 -1 -17 -3 0 -1 4 -18 10 -36 7 -26 6 -42 -5 -64 -8 -17 -15 -42 -15
-56 0 -18 -3 -22 -9 -12 -11 18 -22 0 -32 -54 -5 -22 -11 -53 -15 -70 -11 -50
21 -9 41 53 9 28 21 52 26 52 5 0 9 15 9 34 0 32 23 56 34 37 3 -5 42 -12 87
-15 l81 -8 -7 -71 c-4 -40 -10 -89 -15 -109 -8 -39 2 -52 15 -20 4 9 18 63 30
119 13 57 39 158 58 225 19 68 39 143 45 168 6 25 14 53 17 63 6 15 1 17 -46
15 -30 0 -70 -3 -89 -5z"/>
<path d="M2165 2636 c-22 -7 -53 -18 -70 -26 -16 -7 -41 -13 -54 -14 -20 -1
-34 -18 -73 -86 -36 -62 -47 -89 -40 -100 6 -10 2 -29 -13 -60 -24 -47 -46
-110 -39 -110 2 0 14 21 27 48 17 37 30 49 57 58 19 6 36 19 38 28 2 9 8 16
13 16 5 0 9 18 9 40 0 27 5 43 15 46 10 4 15 20 15 44 0 64 60 92 172 83 90
-8 92 -10 82 -118 -11 -118 -9 -174 5 -188 9 -9 11 0 10 38 -3 64 8 156 21
169 6 6 6 16 0 27 -6 10 -9 35 -8 57 0 21 -2 44 -6 50 -9 15 -108 13 -161 -2z"/>
<path d="M4315 2636 c-22 -7 -53 -18 -70 -26 -16 -7 -41 -13 -54 -14 -24 -1
-27 -5 -97 -130 -9 -16 -13 -38 -10 -52 5 -17 -1 -36 -19 -62 -14 -20 -25 -44
-25 -53 0 -9 -9 -27 -20 -40 -20 -24 -20 -24 -35 -4 -12 15 -19 17 -32 9 -27
-17 -26 -31 2 -38 22 -6 25 -9 15 -21 -7 -8 -19 -15 -27 -15 -8 0 -29 -10 -45
-22 -25 -17 -34 -19 -49 -10 -29 18 -41 14 -21 -6 12 -12 31 -18 50 -17 31 2
142 62 142 77 0 4 6 8 13 8 13 0 97 130 97 151 0 11 3 11 10 -1 9 -13 10 -13
10 1 0 16 60 89 60 73 0 -5 4 -5 8 1 13 18 71 55 87 55 8 0 15 -5 15 -11 0 -5
4 -7 10 -4 5 3 21 -6 36 -20 14 -14 29 -23 35 -20 5 4 6 -2 2 -12 -3 -11 -2
-15 3 -10 5 5 16 29 25 55 l15 46 2 -84 c3 -129 27 -229 48 -207 3 3 -2 16
-10 29 -9 14 -16 35 -16 49 0 13 -1 35 -1 49 -1 49 14 150 23 150 5 0 4 9 -2
21 -6 11 -10 35 -9 52 4 67 5 67 -63 66 -35 -1 -81 -7 -103 -13z"/>
<path d="M1396 2049 c3 -5 -4 -9 -16 -9 -20 0 -69 -45 -70 -63 0 -5 -13 -27
-28 -50 -82 -123 -131 -263 -139 -399 -9 -144 36 -238 128 -268 36 -12 47 -11
95 5 105 35 231 203 280 370 19 67 15 190 -9 247 -18 42 -52 74 -62 58 -5 -8
-15 -4 -32 12 -23 22 -25 22 -37 6 -17 -24 -29 -23 -17 0 12 22 11 62 -1 62
-5 0 -11 -6 -14 -13 -3 -8 -18 -24 -34 -36 l-30 -22 20 37 c15 26 18 39 10 49
-12 15 -53 28 -44 14z m71 -196 c1 -16 5 -42 11 -58 15 -49 7 -155 -15 -205
-24 -53 -117 -159 -130 -147 -4 5 -8 57 -7 115 0 92 4 116 26 170 54 128 113
192 115 125z"/>
<path d="M2450 2044 c-69 -12 -99 -27 -111 -57 -15 -36 -1 -63 30 -60 12 2 21
-2 21 -7 0 -5 6 -7 14 -4 8 3 17 1 20 -5 3 -5 -7 -12 -24 -16 -16 -4 -30 -10
-30 -15 0 -13 38 -19 68 -10 15 5 41 12 57 17 28 8 136 0 156 -13 36 -22 -27
-112 -110 -157 -51 -28 -61 -24 -40 15 6 11 12 35 13 53 3 27 0 32 -15 28 -10
-3 -23 -19 -29 -37 -7 -20 -26 -41 -57 -59 -26 -16 -41 -21 -33 -12 7 9 27 23
42 31 26 13 28 17 16 32 -9 11 -10 14 0 8 6 -4 12 -3 12 3 0 15 -18 23 -25 11
-12 -20 -26 -10 -15 10 9 16 8 22 -5 26 -9 4 -20 3 -24 -2 -15 -18 -33 -92
-26 -104 5 -8 4 -11 -3 -6 -6 4 -17 -15 -27 -46 -10 -29 -21 -57 -25 -63 -5
-5 -11 -28 -15 -50 -4 -22 -11 -44 -15 -50 -13 -19 -29 -90 -36 -157 -6 -59
-5 -68 10 -68 10 0 16 9 16 25 0 14 5 25 11 25 7 0 9 -9 5 -22 -20 -70 -19
-75 11 -81 15 -3 30 -1 31 4 2 5 9 9 16 9 6 0 17 14 23 30 6 17 8 28 3 25 -5
-3 -11 -1 -14 4 -4 5 3 12 13 16 22 7 23 9 47 122 9 45 20 80 23 78 4 -2 26
-42 50 -90 51 -99 85 -132 172 -163 61 -22 63 -22 98 -4 20 11 36 23 36 28 0
5 3 14 6 19 4 6 7 28 6 50 0 40 -1 41 -61 70 -47 23 -69 42 -94 80 l-34 50 28
20 c91 67 111 85 133 125 30 58 61 155 61 192 0 36 -26 83 -54 97 -82 43 -243
70 -326 55z"/>
<path d="M2987 2032 c-8 -9 -17 -28 -19 -42 -3 -14 -30 -122 -61 -240 -70
-274 -85 -352 -70 -357 7 -3 9 -11 6 -19 -3 -7 -8 -12 -12 -9 -9 5 -7 -53 2
-62 4 -3 7 7 7 24 0 19 6 33 16 37 12 5 15 2 9 -11 -16 -41 -18 -85 -4 -94 24
-15 39 -10 40 14 0 21 1 21 9 2 5 -11 9 -17 11 -12 6 22 7 29 8 48 0 12 6 19
13 17 12 -4 36 44 43 87 1 11 7 38 13 60 6 22 13 63 17 90 4 28 12 56 17 63 6
6 8 12 4 12 -3 0 -1 12 5 28 25 65 98 335 93 343 -3 5 -15 9 -28 9 -12 0 -26
4 -31 9 -21 18 -72 20 -88 3z"/>
<path d="M856 2013 c-129 -13 -148 -20 -167 -54 -7 -14 -4 -23 13 -39 12 -11
18 -20 12 -20 -5 0 -2 -5 6 -10 13 -8 12 -10 -2 -10 -10 0 -18 5 -18 10 0 21
-16 9 -18 -13 -2 -33 31 -49 101 -48 52 0 58 -1 52 -17 -8 -22 -87 -321 -112
-429 -13 -52 -16 -88 -11 -98 5 -9 7 -29 3 -45 -9 -41 2 -56 26 -34 10 9 19
24 19 33 0 13 2 13 9 3 6 -10 10 -6 16 15 5 15 8 31 7 36 -2 8 12 10 21 1 3
-3 1 -19 -5 -35 -5 -16 -8 -34 -6 -41 8 -22 46 57 64 131 13 57 19 70 26 55 7
-15 8 -13 5 8 -2 15 -1 26 2 23 4 -2 35 91 71 206 l63 209 49 0 c33 0 47 4 42
11 -4 7 0 9 12 6 25 -8 87 44 79 65 -3 8 -17 20 -31 26 -13 7 -24 16 -24 21 0
6 -10 19 -22 31 -26 24 -85 25 -282 3z"/>
<path d="M4301 2003 c-17 -14 -31 -21 -31 -17 0 21 -97 -91 -152 -175 l-63
-94 -13 59 c-7 32 -15 77 -19 99 -3 22 -14 46 -25 53 -10 7 -18 18 -18 24 0 6
6 6 15 -2 13 -11 14 -10 9 3 -9 23 -32 28 -43 9 -10 -16 -10 -16 -11 0 0 19
-48 48 -77 47 -32 -1 -59 -51 -112 -204 -79 -229 -132 -423 -135 -493 -2 -34
-1 -60 2 -57 3 3 12 -4 20 -16 14 -21 61 -24 64 -4 3 17 22 33 35 28 8 -3 13
3 13 15 0 11 6 27 13 34 8 7 17 31 21 53 4 22 11 51 16 65 4 14 21 68 36 120
31 108 44 130 44 77 0 -20 3 -37 8 -37 4 0 8 -14 9 -31 1 -17 7 -37 13 -44 6
-7 10 -17 9 -21 -4 -15 14 -48 34 -66 23 -21 25 -21 63 -8 22 8 50 43 113 140
46 72 86 128 88 126 2 -2 -1 -25 -8 -52 -35 -153 -46 -215 -37 -221 6 -3 5 -9
-3 -13 -7 -5 -14 -34 -17 -68 -4 -51 -1 -63 19 -86 27 -31 42 -33 70 -5 15 15
19 28 15 47 -6 24 -5 25 7 10 19 -24 27 -23 27 5 0 13 4 27 9 33 8 8 20 69 23
114 0 8 4 20 8 25 4 6 11 33 15 60 5 28 10 55 11 60 2 6 15 57 29 115 14 58
33 134 41 170 24 95 23 115 -2 115 -12 1 -28 6 -35 11 -29 23 -66 22 -98 -3z"/>
<path d="M1810 1986 c0 -8 -4 -16 -8 -18 -9 -3 -70 -187 -83 -248 -4 -19 -14
-62 -23 -94 -58 -209 -34 -317 82 -367 59 -26 113 -24 170 5 61 31 101 75 146
157 56 102 132 334 140 424 2 24 8 50 13 57 12 15 23 68 14 68 -19 -1 -41 -32
-45 -64 -3 -21 -9 -43 -15 -50 -6 -7 -8 -16 -4 -19 3 -4 1 -7 -5 -7 -12 0 -10
59 3 80 6 9 4 11 -6 5 -35 -20 -41 -28 -27 -38 9 -6 7 -7 -6 -3 -20 7 -59 -20
-51 -35 3 -4 -7 -20 -22 -35 -18 -18 -23 -29 -15 -32 10 -3 8 -8 -4 -17 -12
-8 -18 -26 -18 -49 0 -20 -3 -36 -7 -36 -3 0 -19 -35 -34 -77 -44 -126 -121
-210 -152 -167 -27 37 -6 162 63 391 39 129 41 143 15 143 -12 0 -23 -11 -31
-32 -7 -20 -14 -28 -17 -20 -3 8 1 25 8 39 12 22 11 27 -6 39 -25 19 -75 18
-75 0z"/>
</g>
</svg>
